<?xml version="1.0" encoding="utf-8"?>
<!-- Generator: Adobe Illustrator 26.3.1, SVG Export Plug-In . SVG Version: 6.00 Build 0)  -->
<svg version="1.1" id="图层_1" xmlns="http://www.w3.org/2000/svg" xmlns:xlink="http://www.w3.org/1999/xlink" x="0px" y="0px"
	 viewBox="0 0 3351 519" style="enable-background:new 0 0 3351 519;" xml:space="preserve">
<style type="text/css">
	.st0{fill:#FFFFFF;}
	.st1{fill-rule:evenodd;clip-rule:evenodd;fill:#70A1FF;}
</style>
<path class="st0" d="M1111.1,411h-81.9l-20.2-54.9H900.5L880.2,411h-81.9L913.5,96h81.9L1111.1,411z M955,207.1L927,283.2h55.4
	L955,207.1z M1257.3,186h72.4v225h-72.4v-12.6c-16.2,12.6-33,18.9-50.4,18.9c-13.2,0-26.6-2.8-40.1-8.5
	c-13.2-5.7-24.6-15.8-34.2-30.1s-14.4-33.8-14.4-58.1V186h72.4v134.5c0,11.7,3.3,20.2,9.9,25.7c6.9,5.4,15.2,8.1,24.8,8.1
	c9.3,0,17-3.4,23-10.3c6-6.9,9-17.4,9-31.5V186z M1530.6,181.5l-4.5,68.4c-3-0.9-6.6-1.3-10.8-1.3c-18.3,0-33,5.1-44.1,15.3
	c-11.1,10.2-16.7,22.6-16.7,37.4V411h-72.5V186h72.5v36.9c5.1-11.7,13.7-21.4,25.7-29.2c12-8.1,26.7-12.1,44.1-12.1H1530.6z
	 M1720.4,186h72.9v225h-72.9v-12.6c-19.5,12.9-40.5,19.4-63,19.4c-23.7,0-44.1-5.1-61.2-15.3c-16.8-10.2-29.5-24.2-38.2-41.9
	c-8.7-18-13-38.6-13-61.6c0-23.1,4.3-43.7,13-61.7c8.7-18,21.5-32.1,38.2-42.3c17.1-10.2,37.5-15.3,61.2-15.3
	c22.8,0,43.8,6.6,63,19.8V186z M1667.3,348.5c15,0,27.5-4.7,37.4-14c10.2-9.3,15.3-21.5,15.3-36.5c0-14.7-4.9-26.4-14.8-35.1
	c-9.9-8.7-22.5-13.1-37.8-13.1c-14.7,0-26.7,4.5-36,13.5c-9.3,8.7-13.9,20.6-13.9,35.6s4.7,27,13.9,36
	C1640.6,344,1652.6,348.5,1667.3,348.5z M2256.5,285.9L2305.1,96h78.8l-85.1,315h-81.4l-54.9-183.6L2107.5,411h-81.5l-85.5-315h79.2
	l48.6,189.9L2122.8,96h79.2L2256.5,285.9z M2559.8,186h72.9v225h-72.9v-12.6c-19.5,12.9-40.5,19.4-63,19.4
	c-23.7,0-44.1-5.1-61.2-15.3c-16.8-10.2-29.6-24.2-38.2-41.9c-8.7-18-13.1-38.6-13.1-61.6c0-23.1,4.3-43.7,13.1-61.7
	c8.7-18,21.4-32.1,38.2-42.3c17.1-10.2,37.5-15.3,61.2-15.3c22.8,0,43.8,6.6,63,19.8V186z M2506.7,348.5c15,0,27.4-4.7,37.4-14
	c10.2-9.3,15.3-21.5,15.3-36.5c0-14.7-5-26.4-14.9-35.1c-9.9-8.7-22.5-13.1-37.8-13.1c-14.7,0-26.7,4.5-36,13.5
	c-9.3,8.7-13.9,20.6-13.9,35.6s4.6,27,13.9,36S2492,348.5,2506.7,348.5z M2751.8,331.8c0,4.8,1.2,8.2,3.6,10.4
	c2.4,2.1,6.6,3.1,12.6,3.1c2.1,0,6.4-0.3,13.1-0.9V411c-15.6,2.1-28.1,3.1-37.4,3.1c-21.6,0-37.8-5.5-48.6-16.6
	c-10.5-11.4-15.8-31.5-15.8-60.3V96h72.4V331.8z M2884.9,331.8c0,4.8,1.2,8.2,3.6,10.4c2.4,2.1,6.6,3.1,12.6,3.1
	c2.1,0,6.5-0.3,13.1-0.9V411c-15.6,2.1-28.1,3.1-37.3,3.1c-21.6,0-37.8-5.5-48.6-16.6c-10.5-11.4-15.8-31.5-15.8-60.3V96h72.4V331.8
	z M3051.9,179.7c21.6,0,41.1,5.2,58.5,15.8c17.4,10.5,30.9,24.8,40.5,42.8c9.9,18,14.9,38.1,14.9,60.3c0,8.4-0.8,16.8-2.2,25.2
	h-158.4c6.3,11.7,13.3,19.9,21.1,24.8c8.1,4.8,18.6,7.2,31.5,7.2c8.1,0,15.9-1.5,23.4-4.5c7.8-3.3,14-7.8,18.5-13.5l54.9,32.4
	c-10.8,15.3-24.6,27-41.4,35.1c-16.5,8.1-35.4,12.1-56.7,12.1c-24.9,0-46.6-5.1-65.2-15.3c-18.6-10.5-33-24.8-43.2-42.8
	s-15.3-38.2-15.3-60.8c0-22.2,5-42.3,14.9-60.3c10.2-18.3,24.3-32.6,42.3-42.8C3008.1,184.9,3028.8,179.7,3051.9,179.7z
	 M3097.8,268.4c-2.1-8.4-7.5-14.9-16.2-19.4c-8.4-4.5-18.5-6.8-30.2-6.8c-12.3,0-23.2,2.6-32.8,7.6c-9.3,5.1-14.2,11.2-14.9,18.5
	H3097.8z M3285.2,327.3c0,6.6,2.1,11.2,6.3,14c4.5,2.7,11.2,4,20.2,4c3.6,0,9.9-0.3,18.9-0.9V411c-15.6,1.5-28.6,2.2-39.1,2.2
	c-26.4,0-46.2-5.7-59.4-17.1c-12.9-11.7-19.3-32.9-19.3-63.4v-81.9h-35.6V186h35.6v-49.1l72.4-24.3V186h44.6v64.8h-44.6V327.3z"/>
<path class="st0" d="M171.3,474.2l128.1-435c1.3-4.3,5.2-7.2,9.6-7.2h107c4.5,0,8.4,2.9,9.6,7.2l126.2,435
	c1.9,6.4-2.9,12.8-9.6,12.8h-93.8c-4.6,0-8.7-3.2-9.7-7.7l-68.4-288.7c-2.4-10.3-17-10.3-19.5,0l-68.4,288.7
	c-1.1,4.5-5.1,7.7-9.7,7.7h-91.7C174.3,487,169.5,480.6,171.3,474.2z"/>
<path class="st1" d="M645.1,119.4c0,0-0.1,0.4-0.6,1.2C644.8,119.8,645.1,119.4,645.1,119.4z M522.1,96.1
	c107.4-18.7,186-11.1,199.3,25.3c13.3,36.4-41.9,92.9-136,147.9c-51.9,30.3-115.7,60.2-186.3,86c-70.6,25.8-138.6,44.1-197.8,54.4
	C93.9,428.2,15.3,420.7,2,384.3c-13.3-36.4,41.9-92.9,136-147.8c35.4-20.6,76.2-41.1,121-60.2l-24,82c-20.5,14-35,27.8-41.1,39.6
	c-3.3,6.4-4.2,12.2-2.4,17.2c1.8,5,6.3,8.9,12.9,11.6c13.4,5.5,35.9,6.5,63.8,3c2.5-0.3,5-0.6,7.5-1c30.3-4.4,66.3-13.6,103.8-27.4
	c37.5-13.7,71-29.9,97-46c2.2-1.4,4.3-2.7,6.4-4.1c23.5-15.3,40.1-30.5,46.8-43.4c3.3-6.4,4.2-12.2,2.4-17.2
	c-1.8-5-6.3-8.9-12.9-11.6c-13.4-5.5-35.9-6.5-63.8-3c-2.5,0.3-5,0.6-7.5,1c-29.5,4.3-64.3,13.2-100.7,26.3l0.5-0.2l15.6-66.1
	C419.8,118.2,473.9,104.5,522.1,96.1z M59,333.5c0,0,0.5,0.1,1.2,0.5C59.4,333.7,59,333.5,59,333.5z M78.3,386.3
	c0,0,0.1-0.4,0.6-1.2C78.6,385.9,78.4,386.3,78.3,386.3z M663.2,171.6c0.9,0.3,1.2,0.5,1.2,0.5C664.3,172.2,663.9,172,663.2,171.6z"
	/>
</svg>
